<?xml version="1.0" encoding="UTF-8" standalone="no"?>
<!DOCTYPE svg PUBLIC "-//W3C//DTD SVG 1.1//EN" "http://www.w3.org/Graphics/SVG/1.1/DTD/svg11.dtd">
<svg xmlns="http://www.w3.org/2000/svg" version="1.1" viewBox="0 0 212 220">
<path stroke="#000000" stroke-width="2.00" fill="none" stroke-linecap="butt" vector-effect="non-scaling-stroke" d="
  M 141.27 50.53
  Q 139.21 50.37 138.73 48.38
  A 1.08 1.06 -30.5 0 1 138.99 47.41
  L 140.24 46.07
  A 0.60 0.59 41.7 0 0 140.19 45.22
  C 137.15 42.61 133.27 44.74 131.67 47.79
  C 128.28 54.25 139.57 59.48 141.70 51.13
  A 0.49 0.48 9.6 0 0 141.27 50.53"
/>
<path fill="#000000" d="
  M 212.00 187.06
  L 212.00 190.56
  Q 210.36 202.12 201.47 209.22
  C 177.36 228.47 139.79 211.58 149.23 177.39
  A 0.64 0.63 10.8 0 0 148.68 176.59
  L 120.52 173.71
  A 0.63 0.62 -81.5 0 0 119.84 174.22
  C 114.29 203.21 93.69 217.12 65.44 220.00
  L 59.69 220.00
  C 27.70 216.67 2.92 194.06 0.00 161.69
  L 0.00 154.94
  C 1.40 134.04 15.56 117.78 32.89 107.69
  A 1.28 1.27 64.5 0 0 33.43 106.14
  Q 31.35 100.75 29.24 95.43
  C 26.17 87.70 30.80 85.81 36.98 83.22
  A 1.18 1.18 0.0 0 0 37.55 81.56
  Q 34.93 76.86 34.82 71.63
  Q 34.75 68.58 34.16 66.63
  C 33.28 63.69 32.25 61.24 33.06 58.97
  A 0.80 0.80 0.0 0 0 32.88 58.14
  C 31.65 56.84 30.08 55.96 28.93 54.71
  C 24.48 49.86 15.93 42.89 13.40 37.07
  Q 12.41 34.78 14.33 33.19
  C 21.89 26.92 35.59 28.44 44.54 30.49
  C 46.87 31.03 48.74 30.50 49.66 28.29
  A 0.96 0.95 41.9 0 0 49.61 27.45
  Q 49.10 26.55 49.35 25.59
  A 0.61 0.61 0.0 0 1 50.07 25.14
  Q 55.50 26.34 59.48 22.55
  A 1.44 1.42 -17.2 0 0 59.91 21.75
  L 60.17 20.07
  A 0.60 0.59 15.6 0 1 60.99 19.61
  L 63.59 20.68
  A 1.20 1.20 0.0 0 0 64.55 20.68
  Q 69.54 18.51 74.70 16.90
  C 75.93 16.52 76.38 15.84 76.70 14.67
  A 0.59 0.59 0.0 0 1 77.32 14.24
  Q 78.33 14.32 79.04 15.08
  A 0.91 0.90 -26.2 0 0 79.85 15.35
  L 86.83 14.14
  A 0.87 0.86 -83.8 0 0 87.49 13.60
  C 89.02 9.53 94.49 0.11 99.60 0.15
  Q 102.51 0.17 103.57 2.88
  Q 107.40 12.63 104.56 22.77
  A 1.12 1.11 17.2 0 0 105.28 24.13
  C 117.63 28.24 112.21 44.57 125.50 45.21
  Q 127.37 45.30 128.47 43.79
  C 131.72 39.33 137.90 37.51 141.84 42.17
  C 144.80 45.65 146.06 52.86 141.93 56.21
  C 139.55 58.13 135.98 58.13 133.33 61.50
  Q 133.00 61.92 132.52 62.14
  L 126.17 64.97
  A 1.88 1.87 4.0 0 0 125.36 65.67
  L 118.84 76.10
  A 1.16 1.16 0.0 0 0 118.99 77.51
  Q 122.92 81.62 125.60 87.03
  C 126.67 89.18 127.61 89.74 129.91 89.60
  C 134.96 89.28 139.55 93.43 141.57 97.72
  A 1.63 1.59 -89.2 0 0 142.27 98.46
  Q 147.05 101.06 146.95 106.69
  A 1.40 1.40 0.0 0 0 148.25 108.11
  L 159.84 108.96
  A 1.48 1.47 -84.6 0 0 161.42 107.65
  Q 163.87 86.18 165.36 64.37
  Q 165.49 62.44 164.65 60.41
  Q 162.47 55.11 161.63 48.37
  Q 161.35 46.09 163.63 46.30
  L 180.54 47.86
  A 0.68 0.67 -88.6 0 1 181.15 48.51
  Q 181.47 56.80 176.07 62.81
  A 1.15 1.15 0.0 0 0 175.76 63.57
  L 174.09 109.99
  A 0.82 0.82 0.0 0 0 174.77 110.82
  C 190.32 113.45 203.30 117.39 202.71 136.04
  C 202.41 145.69 200.28 154.81 200.05 163.83
  A 1.11 1.11 0.0 0 0 200.42 164.68
  Q 210.36 173.74 212.00 187.06
  Z
  M 141.27 50.53
  Q 139.21 50.37 138.73 48.38
  A 1.08 1.06 -30.5 0 1 138.99 47.41
  L 140.24 46.07
  A 0.60 0.59 41.7 0 0 140.19 45.22
  C 137.15 42.61 133.27 44.74 131.67 47.79
  C 128.28 54.25 139.57 59.48 141.70 51.13
  A 0.49 0.48 9.6 0 0 141.27 50.53
  Z"
/>
<path fill="#000000" d="
  M 141.27 50.53
  A 0.49 0.48 9.6 0 1 141.70 51.13
  C 139.57 59.48 128.28 54.25 131.67 47.79
  C 133.27 44.74 137.15 42.61 140.19 45.22
  A 0.60 0.59 41.7 0 1 140.24 46.07
  L 138.99 47.41
  A 1.08 1.06 -30.5 0 0 138.73 48.38
  Q 139.21 50.37 141.27 50.53
  Z"
/>
</svg>
