<?xml version="1.0" encoding="UTF-8" standalone="no"?>
<!DOCTYPE svg PUBLIC "-//W3C//DTD SVG 1.1//EN" "http://www.w3.org/Graphics/SVG/1.1/DTD/svg11.dtd">
<svg xmlns="http://www.w3.org/2000/svg" version="1.1" viewBox="0 0 153 203">
<g stroke-width="2.00" fill="none" stroke-linecap="butt">
<path stroke="#663e17" vector-effect="non-scaling-stroke" d="
  M 77.44 8.19
  Q 75.49 10.91 75.91 14.10
  A 0.66 0.65 88.4 0 0 76.51 14.67
  L 87.18 15.54
  A 0.49 0.49 0.0 0 0 87.71 15.09
  C 87.92 12.56 88.68 9.46 86.82 7.53
  C 84.54 5.15 79.41 5.43 77.44 8.19"
/>
<path stroke="#800000" vector-effect="non-scaling-stroke" d="
  M 6.13 48.39
  Q 5.79 49.52 6.10 50.45
  A 0.73 0.72 -8.4 0 0 6.78 50.95
  L 14.25 51.21"
/>
<path stroke="#7f7f7f" vector-effect="non-scaling-stroke" d="
  M 14.25 51.21
  L 143.43 63.14
  A 0.51 0.51 0.0 0 0 143.99 62.68
  L 147.50 25.29"
/>
<path stroke="#800000" vector-effect="non-scaling-stroke" d="
  M 147.50 25.29
  Q 147.94 24.50 147.74 23.68
  A 0.72 0.71 -4.4 0 0 147.10 23.14
  L 138.75 22.54"
/>
<path stroke="#7f7f7f" vector-effect="non-scaling-stroke" d="
  M 138.75 22.54
  L 9.91 10.55
  A 0.50 0.50 0.0 0 0 9.36 11.01
  L 6.13 48.39"
/>
<path stroke="#ff7f7f" vector-effect="non-scaling-stroke" d="
  M 138.75 22.54
  L 100.75 29.96"
/>
<path stroke="#cacac9" vector-effect="non-scaling-stroke" d="
  M 100.75 29.96
  Q 99.67 25.26 95.00 25.46"
/>
<path stroke="#dbdbdb" vector-effect="non-scaling-stroke" d="
  M 95.00 25.46
  Q 93.05 24.92 91.01 25.27
  A 0.23 0.22 -4.4 0 1 90.75 25.05
  L 90.75 24.79
  A 0.53 0.52 90.0 0 0 90.24 24.27
  C 82.81 24.11 75.37 25.22 70.15 25.49
  A 1.15 1.15 0.0 0 1 69.37 25.23
  Q 65.03 21.60 59.88 25.55
  Q 58.60 26.53 57.04 26.95
  Q 56.35 27.13 55.41 27.30
  Q 53.11 27.72 51.02 28.78
  L 47.80 30.41
  A 0.73 0.73 0.0 0 1 47.00 30.32
  L 45.41 29.02
  A 0.73 0.72 -64.9 0 1 45.15 28.29
  Q 46.34 22.79 45.77 17.13
  A 0.81 0.78 8.2 0 0 45.27 16.48
  Q 41.75 15.11 40.47 17.95
  A 1.37 1.33 -89.7 0 1 39.80 18.63
  Q 38.14 19.40 37.80 21.16
  A 1.20 1.16 78.2 0 1 37.34 21.89
  Q 34.07 24.32 31.26 27.22
  C 29.11 29.44 26.99 29.81 24.18 29.14
  A 0.80 0.79 -76.0 0 1 23.60 28.17
  L 25.30 21.60
  A 0.93 0.92 27.9 0 0 25.01 20.66
  Q 24.22 19.98 22.28 19.79"
/>
<path stroke="#cacac9" vector-effect="non-scaling-stroke" d="
  M 22.28 19.79
  Q 20.72 23.01 20.93 28.18
  Q 21.00 29.73 19.62 29.84
  Q 19.13 29.88 18.70 30.11
  Q 17.32 30.85 15.85 30.75
  Q 13.92 30.63 15.11 32.15
  Q 17.25 34.88 20.23 36.51
  A 1.11 1.10 8.9 0 1 20.79 37.27
  C 21.62 41.36 27.27 37.10 29.50 36.46"
/>
<path stroke="#dbdbdb" vector-effect="non-scaling-stroke" d="
  M 29.50 36.46
  Q 35.02 35.92 40.03 38.09
  A 1.34 1.31 47.4 0 0 40.96 38.14
  Q 46.56 36.33 51.35 39.51"
/>
<path stroke="#ff7f7f" vector-effect="non-scaling-stroke" d="
  M 51.35 39.51
  L 6.13 48.39"
/>
<path stroke="#cacac9" vector-effect="non-scaling-stroke" d="
  M 34.00 32.96
  L 36.75 33.54"
/>
<path stroke="#a7a7a6" vector-effect="non-scaling-stroke" d="
  M 95.00 25.46
  L 87.92 25.75
  Q 87.42 25.77 86.98 26.00
  L 84.38 27.36
  A 0.86 0.85 -23.0 0 0 83.96 28.38
  L 84.55 30.25
  A 0.77 0.77 0.0 0 0 85.42 30.77
  C 87.35 30.42 93.19 29.33 93.00 31.46"
/>
<path stroke="#dc5c5c" vector-effect="non-scaling-stroke" d="
  M 93.00 31.46
  L 51.35 39.51"
/>
<path stroke="#a7a7a6" vector-effect="non-scaling-stroke" d="
  M 29.50 36.46
  Q 31.51 35.14 34.03 34.93
  A 1.39 1.38 60.3 0 1 34.94 35.18
  C 37.61 37.08 45.53 38.37 45.75 33.31
  A 0.68 0.68 0.0 0 0 44.78 32.66
  Q 43.13 33.43 41.61 32.60
  A 0.63 0.62 -61.4 0 0 40.77 32.85
  L 40.01 34.27
  A 0.81 0.80 13.3 0 1 39.32 34.69
  Q 37.80 34.74 36.75 33.54"
/>
<path stroke="#dbdbdb" vector-effect="non-scaling-stroke" d="
  M 36.75 33.54
  L 38.18 33.34
  A 0.51 0.50 -7.1 0 0 38.61 32.79
  L 38.09 28.06
  A 0.68 0.68 0.0 0 0 37.33 27.45
  L 35.23 27.70
  A 0.68 0.67 -10.7 0 0 34.65 28.54
  Q 35.38 31.20 32.92 31.77
  A 0.23 0.22 83.6 0 0 32.75 31.99
  L 32.75 32.32
  A 0.38 0.37 89.2 0 0 33.12 32.69
  Q 33.60 32.70 34.00 32.96"
/>
<path stroke="#a7a7a6" vector-effect="non-scaling-stroke" d="
  M 34.00 32.96
  L 32.69 33.54
  A 0.76 0.76 0.0 0 1 31.80 33.36
  L 31.37 32.87
  A 0.67 0.66 -55.0 0 1 31.25 32.17
  L 31.73 30.99
  A 0.46 0.46 0.0 0 0 31.25 30.35
  L 23.96 31.23
  A 1.12 1.12 0.0 0 1 22.98 30.85
  C 21.34 28.93 24.03 27.11 23.11 24.48
  A 1.02 0.98 52.1 0 1 23.20 23.62
  Q 24.31 21.86 22.28 19.79"
/>
<path stroke="#ff7f7f" vector-effect="non-scaling-stroke" d="
  M 147.50 25.29
  L 140.25 26.54"
/>
<path stroke="#ff7f7f" vector-effect="non-scaling-stroke" d="
  M 140.25 26.54
  L 139.50 26.79"
/>
<path stroke="#dc5c5c" vector-effect="non-scaling-stroke" d="
  M 139.50 26.79
  L 127.25 29.04"
/>
<path stroke="#cb4b4a" vector-effect="non-scaling-stroke" d="
  M 127.25 29.04
  L 119.16 30.75"
/>
<path stroke="#dc5c5c" vector-effect="non-scaling-stroke" d="
  M 119.16 30.75
  L 105.75 33.29"
/>
<path stroke="#ff7f7f" vector-effect="non-scaling-stroke" d="
  M 105.75 33.29
  L 100.25 34.29"
/>
<path stroke="#dc5c5c" vector-effect="non-scaling-stroke" d="
  M 100.25 34.29
  L 91.25 36.04"
/>
<path stroke="#ff7f7f" vector-effect="non-scaling-stroke" d="
  M 91.25 36.04
  L 84.50 37.29"
/>
<path stroke="#dc5c5c" vector-effect="non-scaling-stroke" d="
  M 84.50 37.29
  L 79.50 38.29"
/>
<path stroke="#cb4b4a" vector-effect="non-scaling-stroke" d="
  M 79.50 38.29
  L 72.50 39.71"
/>
<path stroke="#dc5c5c" vector-effect="non-scaling-stroke" d="
  M 72.50 39.71
  L 62.25 41.54"
/>
<path stroke="#ff7f7f" vector-effect="non-scaling-stroke" d="
  M 62.25 41.54
  L 59.50 42.21"
/>
<path stroke="#ff7f7f" vector-effect="non-scaling-stroke" d="
  M 59.50 42.21
  C 55.27 43.00 14.54 50.42 14.25 51.21"
/>
<path stroke="#cb4b4a" vector-effect="non-scaling-stroke" d="
  M 93.00 31.46
  L 100.75 29.96"
/>
<path stroke="#dbdbdb" vector-effect="non-scaling-stroke" d="
  M 62.25 41.54
  Q 63.50 42.88 64.13 44.55
  C 65.55 48.35 62.81 51.67 68.51 53.40
  A 1.39 1.38 -48.5 0 0 69.45 53.34
  Q 71.16 52.60 74.30 50.52
  C 78.54 47.72 89.45 50.03 94.30 51.20
  C 97.46 51.97 99.35 54.36 101.66 56.45
  A 0.96 0.95 -35.0 0 0 102.65 56.62
  C 108.92 54.06 110.69 47.37 115.93 42.81
  Q 116.27 42.51 116.71 42.39
  Q 118.00 42.03 118.59 40.89
  A 1.32 1.29 -85.4 0 1 119.31 40.26
  Q 125.39 38.06 131.80 37.08
  Q 133.97 36.74 134.86 38.75
  C 136.77 43.08 136.13 45.93 135.99 50.47
  A 1.05 1.01 26.0 0 0 136.26 51.21
  Q 137.35 52.41 138.82 51.78
  A 1.84 1.82 -12.4 0 0 139.92 50.08
  L 139.50 26.79"
/>
<path stroke="#fefefe" vector-effect="non-scaling-stroke" d="
  M 59.50 42.21
  C 62.07 43.60 60.81 47.18 62.06 49.54
  A 1.87 1.82 33.0 0 1 62.27 50.47
  C 62.07 54.45 66.79 55.08 70.01 55.28
  A 1.42 1.38 -60.9 0 0 70.92 55.01
  C 73.21 53.31 75.37 51.40 78.40 51.34
  Q 87.06 51.17 95.30 53.91
  A 1.64 1.63 81.6 0 1 96.12 54.52
  L 97.41 56.34
  A 0.95 0.94 70.0 0 0 98.25 56.74
  Q 99.99 56.63 101.28 57.87
  A 1.39 1.38 -23.5 0 0 102.26 58.25
  L 104.59 58.25
  A 1.37 1.35 -67.2 0 0 105.55 57.85
  C 108.37 55.05 110.84 52.76 113.29 49.34
  C 117.95 42.83 123.09 40.08 131.40 40.81
  A 1.17 1.13 -15.0 0 1 132.21 41.26
  C 135.04 45.08 133.28 49.31 135.01 53.25
  A 1.48 1.43 2.2 0 0 135.71 53.98
  Q 138.04 55.12 139.87 53.14
  Q 141.42 51.45 141.60 49.16
  Q 142.24 40.64 142.03 31.92
  C 141.98 29.84 141.01 28.42 140.25 26.54"
/>
<path stroke="#a7a7a6" vector-effect="non-scaling-stroke" d="
  M 72.50 39.71
  L 73.39 45.05
  A 1.66 1.65 89.5 0 0 74.77 46.41
  Q 77.20 46.79 79.56 46.15
  A 0.65 0.64 -9.8 0 0 80.04 45.48
  L 79.50 38.29"
/>
<path stroke="#dbdbdb" vector-effect="non-scaling-stroke" d="
  M 84.50 37.29
  Q 84.80 38.69 84.36 40.10
  A 1.14 1.13 -51.7 0 0 84.46 41.01
  C 87.58 46.31 91.92 39.97 91.25 36.04"
/>
<path stroke="#dbdbdb" vector-effect="non-scaling-stroke" d="
  M 100.25 34.29
  Q 99.42 36.13 97.65 37.02
  A 0.89 0.88 -11.7 0 0 97.16 37.76
  L 96.97 41.04
  A 1.54 1.51 -61.3 0 0 97.24 42.00
  L 100.01 46.04
  A 1.49 1.49 0.0 0 0 100.82 46.63
  C 109.56 49.25 114.96 37.85 105.75 33.29"
/>
<path stroke="#a7a7a6" vector-effect="non-scaling-stroke" d="
  M 119.16 30.75
  L 115.84 35.47
  A 1.29 1.26 60.1 0 0 115.61 36.37
  C 115.95 39.11 122.88 36.54 124.55 36.13
  A 1.35 1.32 -79.2 0 0 125.33 35.59
  Q 127.36 32.69 127.25 29.04"
/>
<path stroke="#663e17" vector-effect="non-scaling-stroke" d="
  M 83.48 59.92
  L 72.74 58.87
  A 0.62 0.61 5.0 0 0 72.06 59.43
  Q 66.85 122.56 61.63 185.68
  Q 61.22 190.56 61.04 195.12
  Q 60.96 197.33 62.98 198.22
  Q 68.17 200.51 72.00 196.73
  A 2.90 2.88 -20.0 0 0 72.85 194.92
  L 83.93 60.46
  A 0.50 0.50 0.0 0 0 83.48 59.92"
/>
<path stroke="#a7a7a6" vector-effect="non-scaling-stroke" d="
  M 43.07 18.46
  Q 40.85 18.78 39.60 20.60
  A 0.84 0.84 0.0 0 0 39.66 21.63
  L 40.60 22.71
  A 0.84 0.84 0.0 0 0 41.66 22.87
  L 44.07 21.41
  A 0.67 0.65 -22.5 0 0 44.37 20.71
  L 43.99 19.09
  A 0.83 0.83 0.0 0 0 43.07 18.46"
/>
</g>
<path fill="#000000" d="
  M 67.70 59.96
  Q 62.08 58.75 60.26 58.93
  C 56.38 59.30 53.25 57.95 49.50 58.06
  C 45.69 58.18 42.36 57.07 38.60 57.08
  Q 35.92 57.09 33.29 56.61
  C 29.58 55.94 26.12 56.26 22.50 55.58
  C 17.79 54.71 13.48 55.18 8.78 53.95
  Q 8.28 53.82 7.77 53.95
  Q 5.37 54.56 3.64 53.11
  A 1.36 1.36 0.0 0 1 3.17 52.20
  C 2.27 42.12 4.34 32.82 4.94 22.63
  Q 5.31 16.36 6.38 9.12
  A 2.21 2.20 -0.0 0 1 8.24 7.27
  C 11.60 6.78 15.29 7.90 18.61 7.94
  Q 21.68 7.97 24.70 8.50
  C 28.20 9.11 31.55 8.83 35.04 9.41
  C 38.81 10.04 42.49 9.76 46.21 10.46
  C 54.09 11.94 62.65 11.12 70.49 13.00
  A 1.66 1.65 -80.5 0 0 72.52 11.54
  C 73.39 2.39 77.47 2.67 85.28 3.04
  C 91.53 3.34 92.01 7.73 91.10 13.16
  A 1.49 1.49 0.0 0 0 92.65 14.89
  Q 95.65 14.72 99.31 15.36
  C 103.12 16.03 106.74 15.83 110.51 16.46
  C 114.24 17.08 117.88 16.83 121.60 17.48
  C 125.23 18.11 128.77 17.80 132.40 18.50
  C 135.23 19.05 137.52 18.95 140.25 19.11
  C 142.62 19.26 145.99 20.26 149.15 19.97
  A 1.63 1.63 0.0 0 1 150.93 21.47
  C 151.29 26.43 150.20 30.97 150.04 35.81
  Q 149.94 38.81 149.45 41.77
  C 148.20 49.26 148.79 57.43 147.26 64.84
  A 2.38 2.38 0.0 0 1 145.22 66.73
  C 142.08 67.12 138.99 66.02 135.92 66.06
  Q 132.93 66.09 130.01 65.57
  C 126.17 64.88 122.61 65.20 118.84 64.51
  C 115.26 63.85 111.85 64.27 108.30 63.57
  Q 105.70 63.05 103.14 63.08
  C 99.61 63.11 96.29 62.12 93.04 62.04
  Q 90.47 61.98 88.22 61.87
  A 1.23 1.22 -0.4 0 0 86.93 63.17
  C 87.28 68.57 86.08 73.34 86.07 78.62
  Q 86.07 81.76 85.55 84.86
  C 84.87 88.87 85.27 92.65 84.63 96.60
  Q 84.10 99.85 84.07 102.97
  C 84.03 106.99 83.09 110.68 83.06 114.69
  C 83.03 118.83 82.08 122.64 82.06 126.79
  C 82.04 130.88 81.08 134.68 81.05 138.75
  C 81.02 143.15 80.13 147.58 79.97 151.81
  C 79.84 155.23 79.21 158.97 79.00 161.99
  Q 77.83 179.01 76.08 195.98
  C 75.75 199.22 73.11 201.97 69.83 201.99
  C 65.97 202.02 61.20 203.06 58.76 199.45
  C 57.06 196.94 58.05 185.70 58.39 182.41
  C 58.80 178.40 58.88 173.46 59.50 169.08
  C 60.64 161.11 60.43 152.76 61.44 144.80
  C 61.94 140.90 61.81 136.24 62.51 132.02
  C 63.19 127.95 62.88 124.05 63.51 119.99
  C 64.14 115.93 63.75 111.95 64.42 107.88
  C 65.06 104.01 64.50 98.76 65.25 96.24
  C 66.54 91.96 65.61 87.73 66.43 83.38
  Q 66.98 80.50 66.95 78.05
  C 66.90 74.02 67.89 69.97 67.99 66.30
  Q 68.06 63.43 68.17 60.56
  A 0.59 0.59 0.0 0 0 67.70 59.96
  Z
  M 77.44 8.19
  Q 75.49 10.91 75.91 14.10
  A 0.66 0.65 88.4 0 0 76.51 14.67
  L 87.18 15.54
  A 0.49 0.49 0.0 0 0 87.71 15.09
  C 87.92 12.56 88.68 9.46 86.82 7.53
  C 84.54 5.15 79.41 5.43 77.44 8.19
  Z
  M 6.13 48.39
  Q 5.79 49.52 6.10 50.45
  A 0.73 0.72 -8.4 0 0 6.78 50.95
  L 14.25 51.21
  L 143.43 63.14
  A 0.51 0.51 0.0 0 0 143.99 62.68
  L 147.50 25.29
  Q 147.94 24.50 147.74 23.68
  A 0.72 0.71 -4.4 0 0 147.10 23.14
  L 138.75 22.54
  L 9.91 10.55
  A 0.50 0.50 0.0 0 0 9.36 11.01
  L 6.13 48.39
  Z
  M 83.48 59.92
  L 72.74 58.87
  A 0.62 0.61 5.0 0 0 72.06 59.43
  Q 66.85 122.56 61.63 185.68
  Q 61.22 190.56 61.04 195.12
  Q 60.96 197.33 62.98 198.22
  Q 68.17 200.51 72.00 196.73
  A 2.90 2.88 -20.0 0 0 72.85 194.92
  L 83.93 60.46
  A 0.50 0.50 0.0 0 0 83.48 59.92
  Z"
/>
<path fill="#cb7b2d" d="
  M 77.44 8.19
  C 79.41 5.43 84.54 5.15 86.82 7.53
  C 88.68 9.46 87.92 12.56 87.71 15.09
  A 0.49 0.49 0.0 0 1 87.18 15.54
  L 76.51 14.67
  A 0.66 0.65 88.4 0 1 75.91 14.10
  Q 75.49 10.91 77.44 8.19
  Z"
/>
<path fill="#fefefe" d="
  M 138.75 22.54
  L 100.75 29.96
  Q 99.67 25.26 95.00 25.46
  Q 93.05 24.92 91.01 25.27
  A 0.23 0.22 -4.4 0 1 90.75 25.05
  L 90.75 24.79
  A 0.53 0.52 90.0 0 0 90.24 24.27
  C 82.81 24.11 75.37 25.22 70.15 25.49
  A 1.15 1.15 0.0 0 1 69.37 25.23
  Q 65.03 21.60 59.88 25.55
  Q 58.60 26.53 57.04 26.95
  Q 56.35 27.13 55.41 27.30
  Q 53.11 27.72 51.02 28.78
  L 47.80 30.41
  A 0.73 0.73 0.0 0 1 47.00 30.32
  L 45.41 29.02
  A 0.73 0.72 -64.9 0 1 45.15 28.29
  Q 46.34 22.79 45.77 17.13
  A 0.81 0.78 8.2 0 0 45.27 16.48
  Q 41.75 15.11 40.47 17.95
  A 1.37 1.33 -89.7 0 1 39.80 18.63
  Q 38.14 19.40 37.80 21.16
  A 1.20 1.16 78.2 0 1 37.34 21.89
  Q 34.07 24.32 31.26 27.22
  C 29.11 29.44 26.99 29.81 24.18 29.14
  A 0.80 0.79 -76.0 0 1 23.60 28.17
  L 25.30 21.60
  A 0.93 0.92 27.9 0 0 25.01 20.66
  Q 24.22 19.98 22.28 19.79
  Q 20.72 23.01 20.93 28.18
  Q 21.00 29.73 19.62 29.84
  Q 19.13 29.88 18.70 30.11
  Q 17.32 30.85 15.85 30.75
  Q 13.92 30.63 15.11 32.15
  Q 17.25 34.88 20.23 36.51
  A 1.11 1.10 8.9 0 1 20.79 37.27
  C 21.62 41.36 27.27 37.10 29.50 36.46
  Q 35.02 35.92 40.03 38.09
  A 1.34 1.31 47.4 0 0 40.96 38.14
  Q 46.56 36.33 51.35 39.51
  L 6.13 48.39
  L 9.36 11.01
  A 0.50 0.50 0.0 0 1 9.91 10.55
  L 138.75 22.54
  Z"
/>
<path fill="#b8b8b8" d="
  M 95.00 25.46
  L 87.92 25.75
  Q 87.42 25.77 86.98 26.00
  L 84.38 27.36
  A 0.86 0.85 -23.0 0 0 83.96 28.38
  L 84.55 30.25
  A 0.77 0.77 0.0 0 0 85.42 30.77
  C 87.35 30.42 93.19 29.33 93.00 31.46
  L 51.35 39.51
  Q 46.56 36.33 40.96 38.14
  A 1.34 1.31 47.4 0 1 40.03 38.09
  Q 35.02 35.92 29.50 36.46
  Q 31.51 35.14 34.03 34.93
  A 1.39 1.38 60.3 0 1 34.94 35.18
  C 37.61 37.08 45.53 38.37 45.75 33.31
  A 0.68 0.68 0.0 0 0 44.78 32.66
  Q 43.13 33.43 41.61 32.60
  A 0.63 0.62 -61.4 0 0 40.77 32.85
  L 40.01 34.27
  A 0.81 0.80 13.3 0 1 39.32 34.69
  Q 37.80 34.74 36.75 33.54
  L 38.18 33.34
  A 0.51 0.50 -7.1 0 0 38.61 32.79
  L 38.09 28.06
  A 0.68 0.68 0.0 0 0 37.33 27.45
  L 35.23 27.70
  A 0.68 0.67 -10.7 0 0 34.65 28.54
  Q 35.38 31.20 32.92 31.77
  A 0.23 0.22 83.6 0 0 32.75 31.99
  L 32.75 32.32
  A 0.38 0.37 89.2 0 0 33.12 32.69
  Q 33.60 32.70 34.00 32.96
  L 32.69 33.54
  A 0.76 0.76 0.0 0 1 31.80 33.36
  L 31.37 32.87
  A 0.67 0.66 -55.0 0 1 31.25 32.17
  L 31.73 30.99
  A 0.46 0.46 0.0 0 0 31.25 30.35
  L 23.96 31.23
  A 1.12 1.12 0.0 0 1 22.98 30.85
  C 21.34 28.93 24.03 27.11 23.11 24.48
  A 1.02 0.98 52.1 0 1 23.20 23.62
  Q 24.31 21.86 22.28 19.79
  Q 24.22 19.98 25.01 20.66
  A 0.93 0.92 27.9 0 1 25.30 21.60
  L 23.60 28.17
  A 0.80 0.79 -76.0 0 0 24.18 29.14
  C 26.99 29.81 29.11 29.44 31.26 27.22
  Q 34.07 24.32 37.34 21.89
  A 1.20 1.16 78.2 0 0 37.80 21.16
  Q 38.14 19.40 39.80 18.63
  A 1.37 1.33 -89.7 0 0 40.47 17.95
  Q 41.75 15.11 45.27 16.48
  A 0.81 0.78 8.2 0 1 45.77 17.13
  Q 46.34 22.79 45.15 28.29
  A 0.73 0.72 -64.9 0 0 45.41 29.02
  L 47.00 30.32
  A 0.73 0.73 0.0 0 0 47.80 30.41
  L 51.02 28.78
  Q 53.11 27.72 55.41 27.30
  Q 56.35 27.13 57.04 26.95
  Q 58.60 26.53 59.88 25.55
  Q 65.03 21.60 69.37 25.23
  A 1.15 1.15 0.0 0 0 70.15 25.49
  C 75.37 25.22 82.81 24.11 90.24 24.27
  A 0.53 0.52 90.0 0 1 90.75 24.79
  L 90.75 25.05
  A 0.23 0.22 -4.4 0 0 91.01 25.27
  Q 93.05 24.92 95.00 25.46
  Z
  M 43.07 18.46
  Q 40.85 18.78 39.60 20.60
  A 0.84 0.84 0.0 0 0 39.66 21.63
  L 40.60 22.71
  A 0.84 0.84 0.0 0 0 41.66 22.87
  L 44.07 21.41
  A 0.67 0.65 -22.5 0 0 44.37 20.71
  L 43.99 19.09
  A 0.83 0.83 0.0 0 0 43.07 18.46
  Z"
/>
<path fill="#969594" d="
  M 43.99 19.09
  L 44.37 20.71
  A 0.67 0.65 -22.5 0 1 44.07 21.41
  L 41.66 22.87
  A 0.84 0.84 0.0 0 1 40.60 22.71
  L 39.66 21.63
  A 0.84 0.84 0.0 0 1 39.60 20.60
  Q 40.85 18.78 43.07 18.46
  A 0.83 0.83 0.0 0 1 43.99 19.09
  Z"
/>
<path fill="#969594" d="
  M 22.28 19.79
  Q 24.31 21.86 23.20 23.62
  A 1.02 0.98 52.1 0 0 23.11 24.48
  C 24.03 27.11 21.34 28.93 22.98 30.85
  A 1.12 1.12 0.0 0 0 23.96 31.23
  L 31.25 30.35
  A 0.46 0.46 0.0 0 1 31.73 30.99
  L 31.25 32.17
  A 0.67 0.66 -55.0 0 0 31.37 32.87
  L 31.80 33.36
  A 0.76 0.76 0.0 0 0 32.69 33.54
  L 34.00 32.96
  L 36.75 33.54
  Q 37.80 34.74 39.32 34.69
  A 0.81 0.80 13.3 0 0 40.01 34.27
  L 40.77 32.85
  A 0.63 0.62 -61.4 0 1 41.61 32.60
  Q 43.13 33.43 44.78 32.66
  A 0.68 0.68 0.0 0 1 45.75 33.31
  C 45.53 38.37 37.61 37.08 34.94 35.18
  A 1.39 1.38 60.3 0 0 34.03 34.93
  Q 31.51 35.14 29.50 36.46
  C 27.27 37.10 21.62 41.36 20.79 37.27
  A 1.11 1.10 8.9 0 0 20.23 36.51
  Q 17.25 34.88 15.11 32.15
  Q 13.92 30.63 15.85 30.75
  Q 17.32 30.85 18.70 30.11
  Q 19.13 29.88 19.62 29.84
  Q 21.00 29.73 20.93 28.18
  Q 20.72 23.01 22.28 19.79
  Z
  M 28.88 34.35
  Q 29.55 33.85 29.91 33.06
  A 0.44 0.44 0.0 0 0 29.72 32.49
  L 29.32 32.25
  A 0.98 0.98 0.0 0 0 28.36 32.25
  L 24.50 34.45
  A 0.92 0.92 0.0 0 0 24.03 35.30
  C 24.12 37.55 27.52 36.18 28.35 34.92
  Q 28.56 34.59 28.88 34.35
  Z"
/>
<path fill="#ff0000" d="
  M 138.75 22.54
  L 147.10 23.14
  A 0.72 0.71 -4.4 0 1 147.74 23.68
  Q 147.94 24.50 147.50 25.29
  L 140.25 26.54
  L 139.50 26.79
  L 127.25 29.04
  L 119.16 30.75
  L 105.75 33.29
  L 100.25 34.29
  L 91.25 36.04
  L 84.50 37.29
  L 79.50 38.29
  L 72.50 39.71
  L 62.25 41.54
  L 59.50 42.21
  C 55.27 43.00 14.54 50.42 14.25 51.21
  L 6.78 50.95
  A 0.73 0.72 -8.4 0 1 6.10 50.45
  Q 5.79 49.52 6.13 48.39
  L 51.35 39.51
  L 93.00 31.46
  L 100.75 29.96
  L 138.75 22.54
  Z"
/>
<path fill="#969594" d="
  M 100.75 29.96
  L 93.00 31.46
  C 93.19 29.33 87.35 30.42 85.42 30.77
  A 0.77 0.77 0.0 0 1 84.55 30.25
  L 83.96 28.38
  A 0.86 0.85 -23.0 0 1 84.38 27.36
  L 86.98 26.00
  Q 87.42 25.77 87.92 25.75
  L 95.00 25.46
  Q 99.67 25.26 100.75 29.96
  Z"
/>
<path fill="#fefefe" d="
  M 147.50 25.29
  L 143.99 62.68
  A 0.51 0.51 0.0 0 1 143.43 63.14
  L 14.25 51.21
  C 14.54 50.42 55.27 43.00 59.50 42.21
  C 62.07 43.60 60.81 47.18 62.06 49.54
  A 1.87 1.82 33.0 0 1 62.27 50.47
  C 62.07 54.45 66.79 55.08 70.01 55.28
  A 1.42 1.38 -60.9 0 0 70.92 55.01
  C 73.21 53.31 75.37 51.40 78.40 51.34
  Q 87.06 51.17 95.30 53.91
  A 1.64 1.63 81.6 0 1 96.12 54.52
  L 97.41 56.34
  A 0.95 0.94 70.0 0 0 98.25 56.74
  Q 99.99 56.63 101.28 57.87
  A 1.39 1.38 -23.5 0 0 102.26 58.25
  L 104.59 58.25
  A 1.37 1.35 -67.2 0 0 105.55 57.85
  C 108.37 55.05 110.84 52.76 113.29 49.34
  C 117.95 42.83 123.09 40.08 131.40 40.81
  A 1.17 1.13 -15.0 0 1 132.21 41.26
  C 135.04 45.08 133.28 49.31 135.01 53.25
  A 1.48 1.43 2.2 0 0 135.71 53.98
  Q 138.04 55.12 139.87 53.14
  Q 141.42 51.45 141.60 49.16
  Q 142.24 40.64 142.03 31.92
  C 141.98 29.84 141.01 28.42 140.25 26.54
  L 147.50 25.29
  Z"
/>
<path fill="#fefefe" d="
  M 140.25 26.54
  C 141.01 28.42 141.98 29.84 142.03 31.92
  Q 142.24 40.64 141.60 49.16
  Q 141.42 51.45 139.87 53.14
  Q 138.04 55.12 135.71 53.98
  A 1.48 1.43 2.2 0 1 135.01 53.25
  C 133.28 49.31 135.04 45.08 132.21 41.26
  A 1.17 1.13 -15.0 0 0 131.40 40.81
  C 123.09 40.08 117.95 42.83 113.29 49.34
  C 110.84 52.76 108.37 55.05 105.55 57.85
  A 1.37 1.35 -67.2 0 1 104.59 58.25
  L 102.26 58.25
  A 1.39 1.38 -23.5 0 1 101.28 57.87
  Q 99.99 56.63 98.25 56.74
  A 0.95 0.94 70.0 0 1 97.41 56.34
  L 96.12 54.52
  A 1.64 1.63 81.6 0 0 95.30 53.91
  Q 87.06 51.17 78.40 51.34
  C 75.37 51.40 73.21 53.31 70.92 55.01
  A 1.42 1.38 -60.9 0 1 70.01 55.28
  C 66.79 55.08 62.07 54.45 62.27 50.47
  A 1.87 1.82 33.0 0 0 62.06 49.54
  C 60.81 47.18 62.07 43.60 59.50 42.21
  L 62.25 41.54
  Q 63.50 42.88 64.13 44.55
  C 65.55 48.35 62.81 51.67 68.51 53.40
  A 1.39 1.38 -48.5 0 0 69.45 53.34
  Q 71.16 52.60 74.30 50.52
  C 78.54 47.72 89.45 50.03 94.30 51.20
  C 97.46 51.97 99.35 54.36 101.66 56.45
  A 0.96 0.95 -35.0 0 0 102.65 56.62
  C 108.92 54.06 110.69 47.37 115.93 42.81
  Q 116.27 42.51 116.71 42.39
  Q 118.00 42.03 118.59 40.89
  A 1.32 1.29 -85.4 0 1 119.31 40.26
  Q 125.39 38.06 131.80 37.08
  Q 133.97 36.74 134.86 38.75
  C 136.77 43.08 136.13 45.93 135.99 50.47
  A 1.05 1.01 26.0 0 0 136.26 51.21
  Q 137.35 52.41 138.82 51.78
  A 1.84 1.82 -12.4 0 0 139.92 50.08
  L 139.50 26.79
  L 140.25 26.54
  Z"
/>
<path fill="#b8b8b8" d="
  M 139.50 26.79
  L 139.92 50.08
  A 1.84 1.82 -12.4 0 1 138.82 51.78
  Q 137.35 52.41 136.26 51.21
  A 1.05 1.01 26.0 0 1 135.99 50.47
  C 136.13 45.93 136.77 43.08 134.86 38.75
  Q 133.97 36.74 131.80 37.08
  Q 125.39 38.06 119.31 40.26
  A 1.32 1.29 -85.4 0 0 118.59 40.89
  Q 118.00 42.03 116.71 42.39
  Q 116.27 42.51 115.93 42.81
  C 110.69 47.37 108.92 54.06 102.65 56.62
  A 0.96 0.95 -35.0 0 1 101.66 56.45
  C 99.35 54.36 97.46 51.97 94.30 51.20
  C 89.45 50.03 78.54 47.72 74.30 50.52
  Q 71.16 52.60 69.45 53.34
  A 1.39 1.38 -48.5 0 1 68.51 53.40
  C 62.81 51.67 65.55 48.35 64.13 44.55
  Q 63.50 42.88 62.25 41.54
  L 72.50 39.71
  L 73.39 45.05
  A 1.66 1.65 89.5 0 0 74.77 46.41
  Q 77.20 46.79 79.56 46.15
  A 0.65 0.64 -9.8 0 0 80.04 45.48
  L 79.50 38.29
  L 84.50 37.29
  Q 84.80 38.69 84.36 40.10
  A 1.14 1.13 -51.7 0 0 84.46 41.01
  C 87.58 46.31 91.92 39.97 91.25 36.04
  L 100.25 34.29
  Q 99.42 36.13 97.65 37.02
  A 0.89 0.88 -11.7 0 0 97.16 37.76
  L 96.97 41.04
  A 1.54 1.51 -61.3 0 0 97.24 42.00
  L 100.01 46.04
  A 1.49 1.49 0.0 0 0 100.82 46.63
  C 109.56 49.25 114.96 37.85 105.75 33.29
  L 119.16 30.75
  L 115.84 35.47
  A 1.29 1.26 60.1 0 0 115.61 36.37
  C 115.95 39.11 122.88 36.54 124.55 36.13
  A 1.35 1.32 -79.2 0 0 125.33 35.59
  Q 127.36 32.69 127.25 29.04
  L 139.50 26.79
  Z"
/>
<path fill="#fefefe" d="
  M 36.75 33.54
  L 34.00 32.96
  Q 33.60 32.70 33.12 32.69
  A 0.38 0.37 89.2 0 1 32.75 32.32
  L 32.75 31.99
  A 0.23 0.22 83.6 0 1 32.92 31.77
  Q 35.38 31.20 34.65 28.54
  A 0.68 0.67 -10.7 0 1 35.23 27.70
  L 37.33 27.45
  A 0.68 0.68 0.0 0 1 38.09 28.06
  L 38.61 32.79
  A 0.51 0.50 -7.1 0 1 38.18 33.34
  L 36.75 33.54
  Z"
/>
<path fill="#969594" d="
  M 127.25 29.04
  Q 127.36 32.69 125.33 35.59
  A 1.35 1.32 -79.2 0 1 124.55 36.13
  C 122.88 36.54 115.95 39.11 115.61 36.37
  A 1.29 1.26 60.1 0 1 115.84 35.47
  L 119.16 30.75
  L 127.25 29.04
  Z"
/>
<path fill="#fefefe" d="
  M 105.75 33.29
  C 114.96 37.85 109.56 49.25 100.82 46.63
  A 1.49 1.49 0.0 0 1 100.01 46.04
  L 97.24 42.00
  A 1.54 1.51 -61.3 0 1 96.97 41.04
  L 97.16 37.76
  A 0.89 0.88 -11.7 0 1 97.65 37.02
  Q 99.42 36.13 100.25 34.29
  L 105.75 33.29
  Z"
/>
<path fill="#fefefe" d="
  M 91.25 36.04
  C 91.92 39.97 87.58 46.31 84.46 41.01
  A 1.14 1.13 -51.7 0 1 84.36 40.10
  Q 84.80 38.69 84.50 37.29
  L 91.25 36.04
  Z"
/>
<path fill="#969594" d="
  M 79.50 38.29
  L 80.04 45.48
  A 0.65 0.64 -9.8 0 1 79.56 46.15
  Q 77.20 46.79 74.77 46.41
  A 1.66 1.65 89.5 0 1 73.39 45.05
  L 72.50 39.71
  L 79.50 38.29
  Z"
/>
<path fill="#cb7b2d" d="
  M 83.48 59.92
  A 0.50 0.50 0.0 0 1 83.93 60.46
  L 72.85 194.92
  A 2.90 2.88 -20.0 0 1 72.00 196.73
  Q 68.17 200.51 62.98 198.22
  Q 60.96 197.33 61.04 195.12
  Q 61.22 190.56 61.63 185.68
  Q 66.85 122.56 72.06 59.43
  A 0.62 0.61 5.0 0 1 72.74 58.87
  L 83.48 59.92
  Z"
/>
</svg>
