<?xml version="1.0" encoding="UTF-8" standalone="no"?>
<!DOCTYPE svg PUBLIC "-//W3C//DTD SVG 1.1//EN" "http://www.w3.org/Graphics/SVG/1.1/DTD/svg11.dtd">
<svg xmlns="http://www.w3.org/2000/svg" version="1.1" viewBox="0 0 212 220">
<g stroke-width="2.00" fill="none" stroke-linecap="butt">
<path stroke="#7e756e" vector-effect="non-scaling-stroke" d="
  M 58.18 31.81
  L 52.96 29.44
  A 1.01 1.00 -45.3 0 0 52.08 29.45
  Q 50.83 30.05 49.83 31.02
  A 0.46 0.46 0.0 0 0 49.90 31.73
  L 56.52 36.17
  A 1.55 1.55 0.0 0 1 56.79 38.51
  C 54.74 40.73 53.12 40.63 50.80 38.72
  Q 47.32 35.84 43.49 33.30
  Q 41.53 32.00 39.35 32.88
  L 35.47 34.45
  A 1.63 1.58 40.6 0 1 34.48 34.51
  C 28.05 32.86 24.35 31.38 19.60 37.46
  A 1.22 1.21 -39.4 0 0 19.47 38.76
  Q 22.85 45.48 29.29 49.21
  Q 29.74 49.47 30.00 49.92
  C 32.92 54.92 37.72 55.22 43.50 55.51
  Q 44.79 55.57 44.53 57.02
  A 1.35 1.32 -10.8 0 1 43.92 57.90
  L 37.75 61.66
  Q 36.03 62.71 36.25 64.70
  C 36.90 70.83 40.28 77.99 43.14 83.45
  C 47.80 92.32 51.45 89.73 59.34 88.15
  C 67.08 86.60 114.31 76.81 116.87 71.71
  Q 118.65 68.17 114.90 69.43
  C 111.84 70.46 94.54 77.29 97.10 67.63
  A 0.19 0.18 -84.2 0 1 97.28 67.48
  C 109.13 67.38 122.39 66.19 131.58 59.49
  A 0.29 0.29 0.0 0 0 131.53 58.99
  C 127.30 56.99 126.28 53.30 125.56 49.01
  A 0.57 0.56 84.7 0 0 124.99 48.53
  C 120.88 48.59 113.84 44.89 112.15 41.09
  C 108.96 33.93 108.13 29.84 101.57 24.80
  A 1.12 1.10 17.4 0 1 101.14 23.99
  C 100.80 18.17 104.06 12.90 101.07 7.70
  Q 99.50 4.97 97.12 7.03
  Q 93.75 9.95 92.13 14.14
  A 1.13 1.12 -86.5 0 1 91.34 14.84
  Q 90.72 14.98 90.09 14.75
  A 1.76 1.75 48.8 0 0 89.07 14.68
  L 80.20 16.69
  A 0.63 0.61 -6.5 0 0 79.71 17.29
  L 79.66 23.63
  A 1.14 1.14 0.0 0 1 78.10 24.69
  C 76.15 23.93 76.31 20.39 76.09 18.59
  A 0.51 0.51 0.0 0 0 75.40 18.18
  L 66.22 21.66
  A 0.78 0.76 -15.6 0 0 65.73 22.51
  L 66.05 24.50
  A 0.90 0.87 74.8 0 1 65.52 25.45
  L 63.40 26.32
  A 0.84 0.83 -33.1 0 1 62.49 26.13
  L 61.13 24.76
  A 0.90 0.89 -36.9 0 0 60.05 24.61
  L 57.32 26.17
  Q 56.54 26.61 57.34 27.02
  Q 60.06 28.40 59.09 31.41
  A 0.67 0.67 0.0 0 1 58.18 31.81"
/>
<path stroke="#7e756e" vector-effect="non-scaling-stroke" d="
  M 141.27 50.53
  Q 139.21 50.37 138.73 48.38
  A 1.08 1.06 -30.5 0 1 138.99 47.41
  L 140.24 46.07
  A 0.60 0.59 41.7 0 0 140.19 45.22
  C 137.15 42.61 133.27 44.74 131.67 47.79
  C 128.28 54.25 139.57 59.48 141.70 51.13
  A 0.49 0.48 9.6 0 0 141.27 50.53"
/>
<path stroke="#808080" vector-effect="non-scaling-stroke" d="
  M 98.63 107.25
  C 93.55 106.46 76.07 103.66 75.77 96.37
  Q 75.72 95.05 76.69 95.94
  C 82.86 101.51 91.69 108.01 99.18 101.72
  C 102.42 99.01 105.11 96.75 109.66 97.32
  A 1.14 1.12 25.5 0 0 110.61 96.99
  Q 115.83 91.69 122.99 89.73
  A 1.64 1.64 0.0 0 0 124.05 87.47
  Q 121.87 82.70 117.56 79.60
  Q 116.16 78.60 114.48 78.93
  C 106.03 80.60 48.78 91.34 46.67 96.52
  Q 45.88 98.46 46.97 101.49
  Q 47.79 103.74 49.81 102.45
  Q 52.39 100.80 55.02 102.11
  A 1.16 1.16 0.0 0 0 56.04 102.11
  Q 63.55 98.41 69.07 104.16
  A 0.96 0.94 -27.9 0 0 69.97 104.43
  C 81.72 101.92 86.50 110.43 95.80 113.46
  Q 99.93 114.81 101.00 110.92
  Q 101.87 107.76 98.63 107.25"
/>
<path stroke="#808080" vector-effect="non-scaling-stroke" d="
  M 131.54 104.96
  C 132.27 98.68 124.05 97.46 120.16 101.44
  Q 118.57 103.06 119.67 105.04
  C 121.02 107.47 126.36 107.23 128.84 107.30
  Q 131.26 107.36 131.54 104.96"
/>
<path stroke="#808080" vector-effect="non-scaling-stroke" d="
  M 112.4885 104.4269
  A 5.21 4.40 -12.9 0 0 106.4277 101.3011
  A 5.21 4.40 -12.9 0 0 102.3315 106.7531
  A 5.21 4.40 -12.9 0 0 108.3923 109.8789
  A 5.21 4.40 -12.9 0 0 112.4885 104.4269"
/>
<path stroke="#6b6a68" vector-effect="non-scaling-stroke" d="
  M 87.56 132.19
  C 75.23 121.14 60.83 118.73 45.83 125.67
  C 31.79 132.18 22.62 146.07 22.39 161.69
  C 22.04 185.51 49.43 205.04 71.82 197.60
  C 95.04 189.88 106.51 167.76 96.91 144.53
  Q 94.31 138.23 87.56 132.19"
/>
<path stroke="#6b6a68" vector-effect="non-scaling-stroke" d="
  M 197.72 189.24
  C 200.86 178.93 192.03 171.52 182.72 170.88
  C 173.61 170.26 159.54 178.92 162.74 189.77
  Q 166.81 203.57 180.36 204.33
  C 188.45 204.79 195.62 196.10 197.72 189.24"
/>
<path stroke="#7e756e" vector-effect="non-scaling-stroke" d="
  M 86.2674 22.1004
  A 3.35 1.86 114.0 0 0 89.3292 19.7965
  A 3.35 1.86 114.0 0 0 88.9926 15.9796
  A 3.35 1.86 114.0 0 0 85.9308 18.2835
  A 3.35 1.86 114.0 0 0 86.2674 22.1004"
/>
<path stroke="#7e756e" vector-effect="non-scaling-stroke" d="
  M 96.63 20.93
  L 97.88 20.31
  A 1.05 1.03 84.5 0 0 98.43 19.63
  Q 98.96 17.52 97.29 16.61
  A 0.74 0.73 -51.0 0 0 96.45 16.70
  C 94.97 18.00 91.12 23.25 94.64 24.37
  A 0.61 0.61 0.0 0 0 95.41 23.95
  L 96.06 21.62
  A 1.09 1.06 85.3 0 1 96.63 20.93"
/>
<path stroke="#7e756e" vector-effect="non-scaling-stroke" d="
  M 72.6893 30.3227
  A 4.60 2.15 74.5 0 0 73.5318 25.3154
  A 4.60 2.15 74.5 0 0 70.2307 21.4573
  A 4.60 2.15 74.5 0 0 69.3882 26.4646
  A 4.60 2.15 74.5 0 0 72.6893 30.3227"
/>
<path stroke="#7e756e" vector-effect="non-scaling-stroke" d="
  M 87.67 26.24
  Q 85.81 25.56 85.48 27.52
  Q 85.24 28.99 85.93 30.28
  Q 86.96 32.19 88.40 30.57
  Q 91.14 27.49 87.67 26.24"
/>
<path stroke="#7e756e" vector-effect="non-scaling-stroke" d="
  M 64.12 31.25
  A 1.25 1.25 0.0 0 0 62.49 32.42
  C 62.45 34.25 63.48 37.62 66.17 37.12
  A 1.75 1.75 0.0 0 0 67.55 35.01
  Q 66.91 32.16 64.12 31.25"
/>
<path stroke="#7e756e" vector-effect="non-scaling-stroke" d="
  M 43.41 44.94
  Q 45.70 44.51 47.64 43.08
  A 0.46 0.45 41.7 0 0 47.59 42.32
  Q 41.80 39.02 35.14 38.17
  Q 33.95 38.01 34.71 38.95
  L 38.23 43.31
  A 0.41 0.41 0.0 0 1 38.12 43.92
  L 36.41 44.92
  A 0.89 0.89 0.0 0 0 36.40 46.45
  Q 40.13 48.75 42.63 45.42
  A 1.29 1.28 -76.3 0 1 43.41 44.94"
/>
<path stroke="#7e756e" vector-effect="non-scaling-stroke" d="
  M 98.31 49.97
  A 3.91 3.91 0.0 0 0 94.40 46.06
  A 3.91 3.91 0.0 0 0 90.49 49.97
  A 3.91 3.91 0.0 0 0 94.40 53.88
  A 3.91 3.91 0.0 0 0 98.31 49.97"
/>
<path stroke="#7e756e" vector-effect="non-scaling-stroke" d="
  M 138.04 50.96
  A 2.51 2.51 0.0 0 0 135.53 48.45
  A 2.51 2.51 0.0 0 0 133.02 50.96
  A 2.51 2.51 0.0 0 0 135.53 53.47
  A 2.51 2.51 0.0 0 0 138.04 50.96"
/>
<path stroke="#6b6a68" vector-effect="non-scaling-stroke" d="
  M 61.65 143.47
  A 4.31 4.31 0.0 0 0 57.34 139.16
  A 4.31 4.31 0.0 0 0 53.03 143.47
  A 4.31 4.31 0.0 0 0 57.34 147.78
  A 4.31 4.31 0.0 0 0 61.65 143.47"
/>
<path stroke="#6b6a68" vector-effect="non-scaling-stroke" d="
  M 75.9638 150.7993
  A 4.46 4.15 69.2 0 0 78.2595 145.1563
  A 4.46 4.15 69.2 0 0 72.7962 142.4607
  A 4.46 4.15 69.2 0 0 70.5005 148.1037
  A 4.46 4.15 69.2 0 0 75.9638 150.7993"
/>
<path stroke="#6b6a68" vector-effect="non-scaling-stroke" d="
  M 48.61 154.17
  A 4.32 4.32 0.0 0 0 44.29 149.85
  A 4.32 4.32 0.0 0 0 39.97 154.17
  A 4.32 4.32 0.0 0 0 44.29 158.49
  A 4.32 4.32 0.0 0 0 48.61 154.17"
/>
<path stroke="#6b6a68" vector-effect="non-scaling-stroke" d="
  M 72.0986 155.9328
  A 10.27 9.94 -29.5 0 0 58.2653 152.3387
  A 10.27 9.94 -29.5 0 0 54.2214 166.0472
  A 10.27 9.94 -29.5 0 0 68.0547 169.6413
  A 10.27 9.94 -29.5 0 0 72.0986 155.9328"
/>
<path stroke="#6b6a68" vector-effect="non-scaling-stroke" d="
  M 88.11 161.89
  A 4.31 4.31 0.0 0 0 83.80 157.58
  A 4.31 4.31 0.0 0 0 79.49 161.89
  A 4.31 4.31 0.0 0 0 83.80 166.20
  A 4.31 4.31 0.0 0 0 88.11 161.89"
/>
<path stroke="#6b6a68" vector-effect="non-scaling-stroke" d="
  M 49.1484 174.6982
  A 4.45 4.17 69.5 0 0 51.4959 169.0696
  A 4.45 4.17 69.5 0 0 46.0316 166.3618
  A 4.45 4.17 69.5 0 0 43.6841 171.9904
  A 4.45 4.17 69.5 0 0 49.1484 174.6982"
/>
<path stroke="#6b6a68" vector-effect="non-scaling-stroke" d="
  M 77.1235 180.8556
  A 4.44 4.16 71.3 0 0 79.6404 175.3162
  A 4.44 4.16 71.3 0 0 74.2765 172.4444
  A 4.44 4.16 71.3 0 0 71.7596 177.9838
  A 4.44 4.16 71.3 0 0 77.1235 180.8556"
/>
<path stroke="#6b6a68" vector-effect="non-scaling-stroke" d="
  M 63.62 180.21
  A 4.30 4.30 0.0 0 0 59.32 175.91
  A 4.30 4.30 0.0 0 0 55.02 180.21
  A 4.30 4.30 0.0 0 0 59.32 184.51
  A 4.30 4.30 0.0 0 0 63.62 180.21"
/>
<path stroke="#6b6a68" vector-effect="non-scaling-stroke" d="
  M 187.64 187.67
  A 7.59 7.59 0.0 0 0 180.05 180.08
  A 7.59 7.59 0.0 0 0 172.46 187.67
  A 7.59 7.59 0.0 0 0 180.05 195.26
  A 7.59 7.59 0.0 0 0 187.64 187.67"
/>
</g>
<path fill="#000000" d="
  M 212.00 187.06
  L 212.00 190.56
  C 209.45 208.63 190.91 219.76 173.97 216.93
  C 153.63 213.52 143.74 197.52 149.28 177.07
  A 0.37 0.37 0.0 0 0 148.96 176.61
  L 120.96 173.77
  A 1.15 1.15 0.0 0 0 119.71 174.70
  C 114.22 203.47 93.23 217.15 65.44 220.00
  L 59.69 220.00
  C 27.70 216.67 2.92 194.06 0.00 161.69
  L 0.00 154.94
  C 1.40 134.04 15.56 117.78 32.89 107.69
  A 1.28 1.27 64.5 0 0 33.43 106.14
  Q 31.35 100.76 29.24 95.44
  C 26.21 87.81 30.68 85.79 36.90 83.29
  A 1.25 1.25 0.0 0 0 37.52 81.52
  Q 34.31 75.73 34.90 69.09
  A 1.93 1.86 35.8 0 0 34.72 68.09
  Q 32.57 63.51 32.97 58.52
  A 0.79 0.78 19.6 0 0 32.62 57.80
  C 29.38 55.62 26.70 52.12 24.72 50.14
  C 21.19 46.62 15.29 41.61 13.38 37.04
  Q 12.43 34.76 14.33 33.19
  C 21.89 26.92 35.59 28.44 44.54 30.49
  C 46.87 31.03 48.74 30.50 49.66 28.29
  A 0.96 0.95 41.9 0 0 49.61 27.45
  Q 49.10 26.55 49.35 25.59
  A 0.61 0.61 0.0 0 1 50.07 25.14
  Q 55.50 26.34 59.48 22.55
  A 1.44 1.42 -17.2 0 0 59.91 21.75
  L 60.17 20.07
  A 0.60 0.59 15.6 0 1 60.99 19.61
  L 63.59 20.68
  A 1.20 1.20 0.0 0 0 64.55 20.68
  Q 69.54 18.51 74.70 16.90
  C 75.93 16.52 76.38 15.84 76.70 14.67
  A 0.59 0.59 0.0 0 1 77.32 14.24
  Q 78.33 14.32 79.04 15.08
  A 0.91 0.90 -26.2 0 0 79.85 15.35
  L 86.83 14.14
  A 0.87 0.86 -83.8 0 0 87.49 13.60
  C 89.02 9.53 94.49 0.11 99.60 0.15
  Q 102.51 0.17 103.57 2.88
  Q 107.40 12.63 104.56 22.77
  A 1.12 1.11 17.2 0 0 105.28 24.13
  C 117.65 28.25 112.19 44.64 125.57 45.22
  Q 127.47 45.30 128.56 43.74
  C 133.20 37.03 140.74 38.28 143.81 45.80
  Q 146.35 52.02 141.68 56.25
  C 139.16 58.53 135.89 58.08 133.36 61.47
  Q 133.04 61.90 132.55 62.12
  L 126.17 64.97
  A 1.88 1.87 4.0 0 0 125.36 65.67
  L 118.86 76.07
  A 1.21 1.20 39.7 0 0 119.00 77.53
  Q 123.53 82.40 126.29 88.48
  A 1.53 1.51 76.9 0 0 127.72 89.38
  Q 137.45 89.17 141.70 97.84
  A 1.82 1.77 2.8 0 0 142.43 98.62
  Q 147.59 101.55 146.88 107.60
  A 0.50 0.50 0.0 0 0 147.35 108.16
  L 159.86 108.84
  A 1.66 1.65 -85.8 0 0 161.59 107.34
  L 165.63 62.85
  A 1.93 1.92 33.9 0 0 165.42 61.79
  Q 162.01 55.17 161.70 47.74
  A 1.43 1.43 0.0 0 1 163.26 46.26
  L 180.53 47.87
  A 0.69 0.69 0.0 0 1 181.15 48.52
  Q 181.57 56.76 176.12 62.71
  A 1.41 1.38 -23.0 0 0 175.75 63.60
  L 174.20 109.50
  A 1.31 1.30 -83.4 0 0 175.24 110.82
  C 187.50 113.30 199.05 115.42 202.48 129.27
  Q 203.25 132.37 202.34 141.93
  Q 201.35 152.50 199.74 163.09
  A 1.60 1.59 -64.8 0 0 200.26 164.54
  Q 210.31 173.47 212.00 187.06
  Z
  M 58.18 31.81
  L 52.96 29.44
  A 1.01 1.00 -45.3 0 0 52.08 29.45
  Q 50.83 30.05 49.83 31.02
  A 0.46 0.46 0.0 0 0 49.90 31.73
  L 56.52 36.17
  A 1.55 1.55 0.0 0 1 56.79 38.51
  C 54.74 40.73 53.12 40.63 50.80 38.72
  Q 47.32 35.84 43.49 33.30
  Q 41.53 32.00 39.35 32.88
  L 35.47 34.45
  A 1.63 1.58 40.6 0 1 34.48 34.51
  C 28.05 32.86 24.35 31.38 19.60 37.46
  A 1.22 1.21 -39.4 0 0 19.47 38.76
  Q 22.85 45.48 29.29 49.21
  Q 29.74 49.47 30.00 49.92
  C 32.92 54.92 37.72 55.22 43.50 55.51
  Q 44.79 55.57 44.53 57.02
  A 1.35 1.32 -10.8 0 1 43.92 57.90
  L 37.75 61.66
  Q 36.03 62.71 36.25 64.70
  C 36.90 70.83 40.28 77.99 43.14 83.45
  C 47.80 92.32 51.45 89.73 59.34 88.15
  C 67.08 86.60 114.31 76.81 116.87 71.71
  Q 118.65 68.17 114.90 69.43
  C 111.84 70.46 94.54 77.29 97.10 67.63
  A 0.19 0.18 -84.2 0 1 97.28 67.48
  C 109.13 67.38 122.39 66.19 131.58 59.49
  A 0.29 0.29 0.0 0 0 131.53 58.99
  C 127.30 56.99 126.28 53.30 125.56 49.01
  A 0.57 0.56 84.7 0 0 124.99 48.53
  C 120.88 48.59 113.84 44.89 112.15 41.09
  C 108.96 33.93 108.13 29.84 101.57 24.80
  A 1.12 1.10 17.4 0 1 101.14 23.99
  C 100.80 18.17 104.06 12.90 101.07 7.70
  Q 99.50 4.97 97.12 7.03
  Q 93.75 9.95 92.13 14.14
  A 1.13 1.12 -86.5 0 1 91.34 14.84
  Q 90.72 14.98 90.09 14.75
  A 1.76 1.75 48.8 0 0 89.07 14.68
  L 80.20 16.69
  A 0.63 0.61 -6.5 0 0 79.71 17.29
  L 79.66 23.63
  A 1.14 1.14 0.0 0 1 78.10 24.69
  C 76.15 23.93 76.31 20.39 76.09 18.59
  A 0.51 0.51 0.0 0 0 75.40 18.18
  L 66.22 21.66
  A 0.78 0.76 -15.6 0 0 65.73 22.51
  L 66.05 24.50
  A 0.90 0.87 74.8 0 1 65.52 25.45
  L 63.40 26.32
  A 0.84 0.83 -33.1 0 1 62.49 26.13
  L 61.13 24.76
  A 0.90 0.89 -36.9 0 0 60.05 24.61
  L 57.32 26.17
  Q 56.54 26.61 57.34 27.02
  Q 60.06 28.40 59.09 31.41
  A 0.67 0.67 0.0 0 1 58.18 31.81
  Z
  M 141.27 50.53
  Q 139.21 50.37 138.73 48.38
  A 1.08 1.06 -30.5 0 1 138.99 47.41
  L 140.24 46.07
  A 0.60 0.59 41.7 0 0 140.19 45.22
  C 137.15 42.61 133.27 44.74 131.67 47.79
  C 128.28 54.25 139.57 59.48 141.70 51.13
  A 0.49 0.48 9.6 0 0 141.27 50.53
  Z
  M 175.34 52.87
  L 167.37 52.03
  Q 165.27 51.81 165.46 53.91
  Q 165.92 59.17 170.78 61.07
  A 1.34 1.33 -46.5 0 0 171.83 61.04
  Q 176.53 58.88 175.97 53.51
  A 0.72 0.71 89.9 0 0 175.34 52.87
  Z
  M 172.38 66.50
  L 169.25 65.45
  A 0.72 0.72 0.0 0 0 168.31 66.06
  C 166.98 79.76 164.92 93.28 165.02 106.88
  A 1.04 1.03 -77.2 0 0 165.60 107.81
  L 168.66 109.31
  A 1.31 1.31 0.0 0 0 170.54 108.24
  C 171.62 94.75 173.08 80.98 172.98 67.32
  A 0.88 0.86 -81.7 0 0 172.38 66.50
  Z
  M 98.63 107.25
  C 93.55 106.46 76.07 103.66 75.77 96.37
  Q 75.72 95.05 76.69 95.94
  C 82.86 101.51 91.69 108.01 99.18 101.72
  C 102.42 99.01 105.11 96.75 109.66 97.32
  A 1.14 1.12 25.5 0 0 110.61 96.99
  Q 115.83 91.69 122.99 89.73
  A 1.64 1.64 0.0 0 0 124.05 87.47
  Q 121.87 82.70 117.56 79.60
  Q 116.16 78.60 114.48 78.93
  C 106.03 80.60 48.78 91.34 46.67 96.52
  Q 45.88 98.46 46.97 101.49
  Q 47.79 103.74 49.81 102.45
  Q 52.39 100.80 55.02 102.11
  A 1.16 1.16 0.0 0 0 56.04 102.11
  Q 63.55 98.41 69.07 104.16
  A 0.96 0.94 -27.9 0 0 69.97 104.43
  C 81.72 101.92 86.50 110.43 95.80 113.46
  Q 99.93 114.81 101.00 110.92
  Q 101.87 107.76 98.63 107.25
  Z
  M 131.54 104.96
  C 132.27 98.68 124.05 97.46 120.16 101.44
  Q 118.57 103.06 119.67 105.04
  C 121.02 107.47 126.36 107.23 128.84 107.30
  Q 131.26 107.36 131.54 104.96
  Z
  M 112.4885 104.4269
  A 5.21 4.40 -12.9 0 0 106.4277 101.3011
  A 5.21 4.40 -12.9 0 0 102.3315 106.7531
  A 5.21 4.40 -12.9 0 0 108.3923 109.8789
  A 5.21 4.40 -12.9 0 0 112.4885 104.4269
  Z
  M 183.88 140.65
  Q 184.28 138.38 186.57 138.71
  L 198.42 140.43
  A 0.71 0.69 -73.4 0 0 199.16 140.02
  L 199.37 139.56
  Q 200.44 137.18 197.86 136.77
  C 196.29 136.53 184.42 134.67 184.65 132.96
  A 1.43 1.42 -85.9 0 1 186.07 131.72
  Q 191.75 131.73 197.15 133.56
  A 0.81 0.80 -79.0 0 0 198.21 132.84
  L 198.25 132.25
  A 0.75 0.74 -80.8 0 0 197.71 131.49
  C 195.93 131.00 185.88 128.79 185.46 127.55
  A 1.33 1.32 -10.4 0 1 186.67 125.81
  Q 191.65 125.63 196.43 127.19
  A 0.64 0.64 0.0 0 0 197.18 126.90
  C 198.89 123.98 188.78 118.33 187.24 117.99
  C 174.43 115.16 156.31 113.14 140.08 110.06
  C 126.16 107.41 113.73 107.98 102.32 116.42
  A 1.45 1.45 0.0 0 0 102.16 118.62
  Q 121.57 137.70 121.12 165.21
  A 0.75 0.75 0.0 0 0 121.75 165.96
  L 138.16 168.40
  A 1.14 1.14 0.0 0 0 139.35 167.76
  C 147.74 149.90 163.76 139.43 183.95 143.67
  Q 185.43 143.99 184.49 142.80
  Q 183.68 141.78 183.88 140.65
  Z
  M 87.56 132.19
  C 75.23 121.14 60.83 118.73 45.83 125.67
  C 31.79 132.18 22.62 146.07 22.39 161.69
  C 22.04 185.51 49.43 205.04 71.82 197.60
  C 95.04 189.88 106.51 167.76 96.91 144.53
  Q 94.31 138.23 87.56 132.19
  Z
  M 194.76 151.75
  Q 193.48 150.30 191.66 149.65
  C 172.59 142.87 153.46 147.56 145.09 166.98
  A 0.63 0.63 0.0 0 0 145.61 167.85
  Q 149.12 168.19 152.52 168.98
  C 155.92 169.78 156.87 166.62 158.48 165.13
  Q 173.96 150.91 194.25 159.22
  A 0.75 0.74 -63.4 0 0 195.17 158.91
  Q 197.56 154.90 194.76 151.75
  Z
  M 197.72 189.24
  C 200.86 178.93 192.03 171.52 182.72 170.88
  C 173.61 170.26 159.54 178.92 162.74 189.77
  Q 166.81 203.57 180.36 204.33
  C 188.45 204.79 195.62 196.10 197.72 189.24
  Z"
/>
<path fill="#fceadb" d="
  M 59.09 31.41
  Q 60.06 28.40 57.34 27.02
  Q 56.54 26.61 57.32 26.17
  L 60.05 24.61
  A 0.90 0.89 -36.9 0 1 61.13 24.76
  L 62.49 26.13
  A 0.84 0.83 -33.1 0 0 63.40 26.32
  L 65.52 25.45
  A 0.90 0.87 74.8 0 0 66.05 24.50
  L 65.73 22.51
  A 0.78 0.76 -15.6 0 1 66.22 21.66
  L 75.40 18.18
  A 0.51 0.51 0.0 0 1 76.09 18.59
  C 76.31 20.39 76.15 23.93 78.10 24.69
  A 1.14 1.14 0.0 0 0 79.66 23.63
  L 79.71 17.29
  A 0.63 0.61 -6.5 0 1 80.20 16.69
  L 89.07 14.68
  A 1.76 1.75 48.8 0 1 90.09 14.75
  Q 90.72 14.98 91.34 14.84
  A 1.13 1.12 -86.5 0 0 92.13 14.14
  Q 93.75 9.95 97.12 7.03
  Q 99.50 4.97 101.07 7.70
  C 104.06 12.90 100.80 18.17 101.14 23.99
  A 1.12 1.10 17.4 0 0 101.57 24.80
  C 108.13 29.84 108.96 33.93 112.15 41.09
  C 113.84 44.89 120.88 48.59 124.99 48.53
  A 0.57 0.56 84.7 0 1 125.56 49.01
  C 126.28 53.30 127.30 56.99 131.53 58.99
  A 0.29 0.29 0.0 0 1 131.58 59.49
  C 122.39 66.19 109.13 67.38 97.28 67.48
  A 0.19 0.18 -84.2 0 0 97.10 67.63
  C 94.54 77.29 111.84 70.46 114.90 69.43
  Q 118.65 68.17 116.87 71.71
  C 114.31 76.81 67.08 86.60 59.34 88.15
  C 51.45 89.73 47.80 92.32 43.14 83.45
  C 40.28 77.99 36.90 70.83 36.25 64.70
  Q 36.03 62.71 37.75 61.66
  L 43.92 57.90
  A 1.35 1.32 -10.8 0 0 44.53 57.02
  Q 44.79 55.57 43.50 55.51
  C 37.72 55.22 32.92 54.92 30.00 49.92
  Q 29.74 49.47 29.29 49.21
  Q 22.85 45.48 19.47 38.76
  A 1.22 1.21 -39.4 0 1 19.60 37.46
  C 24.35 31.38 28.05 32.86 34.48 34.51
  A 1.63 1.58 40.6 0 0 35.47 34.45
  L 39.35 32.88
  Q 41.53 32.00 43.49 33.30
  Q 47.32 35.84 50.80 38.72
  C 53.12 40.63 54.74 40.73 56.79 38.51
  A 1.55 1.55 0.0 0 0 56.52 36.17
  L 49.90 31.73
  A 0.46 0.46 0.0 0 1 49.83 31.02
  Q 50.83 30.05 52.08 29.45
  A 1.01 1.00 -45.3 0 1 52.96 29.44
  L 58.18 31.81
  A 0.67 0.67 0.0 0 0 59.09 31.41
  Z
  M 86.2674 22.1004
  A 3.35 1.86 114.0 0 0 89.3292 19.7965
  A 3.35 1.86 114.0 0 0 88.9926 15.9796
  A 3.35 1.86 114.0 0 0 85.9308 18.2835
  A 3.35 1.86 114.0 0 0 86.2674 22.1004
  Z
  M 96.63 20.93
  L 97.88 20.31
  A 1.05 1.03 84.5 0 0 98.43 19.63
  Q 98.96 17.52 97.29 16.61
  A 0.74 0.73 -51.0 0 0 96.45 16.70
  C 94.97 18.00 91.12 23.25 94.64 24.37
  A 0.61 0.61 0.0 0 0 95.41 23.95
  L 96.06 21.62
  A 1.09 1.06 85.3 0 1 96.63 20.93
  Z
  M 72.6893 30.3227
  A 4.60 2.15 74.5 0 0 73.5318 25.3154
  A 4.60 2.15 74.5 0 0 70.2307 21.4573
  A 4.60 2.15 74.5 0 0 69.3882 26.4646
  A 4.60 2.15 74.5 0 0 72.6893 30.3227
  Z
  M 87.67 26.24
  Q 85.81 25.56 85.48 27.52
  Q 85.24 28.99 85.93 30.28
  Q 86.96 32.19 88.40 30.57
  Q 91.14 27.49 87.67 26.24
  Z
  M 64.12 31.25
  A 1.25 1.25 0.0 0 0 62.49 32.42
  C 62.45 34.25 63.48 37.62 66.17 37.12
  A 1.75 1.75 0.0 0 0 67.55 35.01
  Q 66.91 32.16 64.12 31.25
  Z
  M 43.41 44.94
  Q 45.70 44.51 47.64 43.08
  A 0.46 0.45 41.7 0 0 47.59 42.32
  Q 41.80 39.02 35.14 38.17
  Q 33.95 38.01 34.71 38.95
  L 38.23 43.31
  A 0.41 0.41 0.0 0 1 38.12 43.92
  L 36.41 44.92
  A 0.89 0.89 0.0 0 0 36.40 46.45
  Q 40.13 48.75 42.63 45.42
  A 1.29 1.28 -76.3 0 1 43.41 44.94
  Z
  M 98.31 49.97
  A 3.91 3.91 0.0 0 0 94.40 46.06
  A 3.91 3.91 0.0 0 0 90.49 49.97
  A 3.91 3.91 0.0 0 0 94.40 53.88
  A 3.91 3.91 0.0 0 0 98.31 49.97
  Z"
/>
<ellipse fill="#000000" cx="0.00" cy="0.00" transform="translate(87.63,19.04) rotate(114.0)" rx="3.35" ry="1.86"/>
<path fill="#000000" d="
  M 96.06 21.62
  L 95.41 23.95
  A 0.61 0.61 0.0 0 1 94.64 24.37
  C 91.12 23.25 94.97 18.00 96.45 16.70
  A 0.74 0.73 -51.0 0 1 97.29 16.61
  Q 98.96 17.52 98.43 19.63
  A 1.05 1.03 84.5 0 1 97.88 20.31
  L 96.63 20.93
  A 1.09 1.06 85.3 0 0 96.06 21.62
  Z"
/>
<ellipse fill="#000000" cx="0.00" cy="0.00" transform="translate(71.46,25.89) rotate(74.5)" rx="4.60" ry="2.15"/>
<path fill="#000000" d="
  M 87.67 26.24
  Q 91.14 27.49 88.40 30.57
  Q 86.96 32.19 85.93 30.28
  Q 85.24 28.99 85.48 27.52
  Q 85.81 25.56 87.67 26.24
  Z"
/>
<path fill="#000000" d="
  M 64.12 31.25
  Q 66.91 32.16 67.55 35.01
  A 1.75 1.75 0.0 0 1 66.17 37.12
  C 63.48 37.62 62.45 34.25 62.49 32.42
  A 1.25 1.25 0.0 0 1 64.12 31.25
  Z"
/>
<path fill="#000000" d="
  M 42.63 45.42
  Q 40.13 48.75 36.40 46.45
  A 0.89 0.89 0.0 0 1 36.41 44.92
  L 38.12 43.92
  A 0.41 0.41 0.0 0 0 38.23 43.31
  L 34.71 38.95
  Q 33.95 38.01 35.14 38.17
  Q 41.80 39.02 47.59 42.32
  A 0.46 0.45 41.7 0 1 47.64 43.08
  Q 45.70 44.51 43.41 44.94
  A 1.29 1.28 -76.3 0 0 42.63 45.42
  Z"
/>
<path fill="#fceadb" d="
  M 141.27 50.53
  A 0.49 0.48 9.6 0 1 141.70 51.13
  C 139.57 59.48 128.28 54.25 131.67 47.79
  C 133.27 44.74 137.15 42.61 140.19 45.22
  A 0.60 0.59 41.7 0 1 140.24 46.07
  L 138.99 47.41
  A 1.08 1.06 -30.5 0 0 138.73 48.38
  Q 139.21 50.37 141.27 50.53
  Z
  M 138.04 50.96
  A 2.51 2.51 0.0 0 0 135.53 48.45
  A 2.51 2.51 0.0 0 0 133.02 50.96
  A 2.51 2.51 0.0 0 0 135.53 53.47
  A 2.51 2.51 0.0 0 0 138.04 50.96
  Z"
/>
<circle fill="#000000" cx="94.40" cy="49.97" r="3.91"/>
<circle fill="#000000" cx="135.53" cy="50.96" r="2.51"/>
<path fill="#ffffff" d="
  M 98.63 107.25
  Q 101.87 107.76 101.00 110.92
  Q 99.93 114.81 95.80 113.46
  C 86.50 110.43 81.72 101.92 69.97 104.43
  A 0.96 0.94 -27.9 0 1 69.07 104.16
  Q 63.55 98.41 56.04 102.11
  A 1.16 1.16 0.0 0 1 55.02 102.11
  Q 52.39 100.80 49.81 102.45
  Q 47.79 103.74 46.97 101.49
  Q 45.88 98.46 46.67 96.52
  C 48.78 91.34 106.03 80.60 114.48 78.93
  Q 116.16 78.60 117.56 79.60
  Q 121.87 82.70 124.05 87.47
  A 1.64 1.64 0.0 0 1 122.99 89.73
  Q 115.83 91.69 110.61 96.99
  A 1.14 1.12 25.5 0 1 109.66 97.32
  C 105.11 96.75 102.42 99.01 99.18 101.72
  C 91.69 108.01 82.86 101.51 76.69 95.94
  Q 75.72 95.05 75.77 96.37
  C 76.07 103.66 93.55 106.46 98.63 107.25
  Z"
/>
<path fill="#ffffff" d="
  M 120.16 101.44
  C 124.05 97.46 132.27 98.68 131.54 104.96
  Q 131.26 107.36 128.84 107.30
  C 126.36 107.23 121.02 107.47 119.67 105.04
  Q 118.57 103.06 120.16 101.44
  Z"
/>
<ellipse fill="#ffffff" cx="0.00" cy="0.00" transform="translate(107.41,105.59) rotate(-12.9)" rx="5.21" ry="4.40"/>
<path fill="#d5d4d0" d="
  M 87.56 132.19
  Q 94.31 138.23 96.91 144.53
  C 106.51 167.76 95.04 189.88 71.82 197.60
  C 49.43 205.04 22.04 185.51 22.39 161.69
  C 22.62 146.07 31.79 132.18 45.83 125.67
  C 60.83 118.73 75.23 121.14 87.56 132.19
  Z
  M 61.65 143.47
  A 4.31 4.31 0.0 0 0 57.34 139.16
  A 4.31 4.31 0.0 0 0 53.03 143.47
  A 4.31 4.31 0.0 0 0 57.34 147.78
  A 4.31 4.31 0.0 0 0 61.65 143.47
  Z
  M 75.9638 150.7993
  A 4.46 4.15 69.2 0 0 78.2595 145.1563
  A 4.46 4.15 69.2 0 0 72.7962 142.4607
  A 4.46 4.15 69.2 0 0 70.5005 148.1037
  A 4.46 4.15 69.2 0 0 75.9638 150.7993
  Z
  M 48.61 154.17
  A 4.32 4.32 0.0 0 0 44.29 149.85
  A 4.32 4.32 0.0 0 0 39.97 154.17
  A 4.32 4.32 0.0 0 0 44.29 158.49
  A 4.32 4.32 0.0 0 0 48.61 154.17
  Z
  M 72.0986 155.9328
  A 10.27 9.94 -29.5 0 0 58.2653 152.3387
  A 10.27 9.94 -29.5 0 0 54.2214 166.0472
  A 10.27 9.94 -29.5 0 0 68.0547 169.6413
  A 10.27 9.94 -29.5 0 0 72.0986 155.9328
  Z
  M 88.11 161.89
  A 4.31 4.31 0.0 0 0 83.80 157.58
  A 4.31 4.31 0.0 0 0 79.49 161.89
  A 4.31 4.31 0.0 0 0 83.80 166.20
  A 4.31 4.31 0.0 0 0 88.11 161.89
  Z
  M 49.1484 174.6982
  A 4.45 4.17 69.5 0 0 51.4959 169.0696
  A 4.45 4.17 69.5 0 0 46.0316 166.3618
  A 4.45 4.17 69.5 0 0 43.6841 171.9904
  A 4.45 4.17 69.5 0 0 49.1484 174.6982
  Z
  M 77.1235 180.8556
  A 4.44 4.16 71.3 0 0 79.6404 175.3162
  A 4.44 4.16 71.3 0 0 74.2765 172.4444
  A 4.44 4.16 71.3 0 0 71.7596 177.9838
  A 4.44 4.16 71.3 0 0 77.1235 180.8556
  Z
  M 63.62 180.21
  A 4.30 4.30 0.0 0 0 59.32 175.91
  A 4.30 4.30 0.0 0 0 55.02 180.21
  A 4.30 4.30 0.0 0 0 59.32 184.51
  A 4.30 4.30 0.0 0 0 63.62 180.21
  Z"
/>
<circle fill="#000000" cx="57.34" cy="143.47" r="4.31"/>
<ellipse fill="#000000" cx="0.00" cy="0.00" transform="translate(74.38,146.63) rotate(69.2)" rx="4.46" ry="4.15"/>
<circle fill="#000000" cx="44.29" cy="154.17" r="4.32"/>
<ellipse fill="#000000" cx="0.00" cy="0.00" transform="translate(63.16,160.99) rotate(-29.5)" rx="10.27" ry="9.94"/>
<circle fill="#000000" cx="83.80" cy="161.89" r="4.31"/>
<ellipse fill="#000000" cx="0.00" cy="0.00" transform="translate(47.59,170.53) rotate(69.5)" rx="4.45" ry="4.17"/>
<path fill="#d5d4d0" d="
  M 182.72 170.88
  C 192.03 171.52 200.86 178.93 197.72 189.24
  C 195.62 196.10 188.45 204.79 180.36 204.33
  Q 166.81 203.57 162.74 189.77
  C 159.54 178.92 173.61 170.26 182.72 170.88
  Z
  M 187.64 187.67
  A 7.59 7.59 0.0 0 0 180.05 180.08
  A 7.59 7.59 0.0 0 0 172.46 187.67
  A 7.59 7.59 0.0 0 0 180.05 195.26
  A 7.59 7.59 0.0 0 0 187.64 187.67
  Z"
/>
<ellipse fill="#000000" cx="0.00" cy="0.00" transform="translate(75.70,176.65) rotate(71.3)" rx="4.44" ry="4.16"/>
<circle fill="#000000" cx="59.32" cy="180.21" r="4.30"/>
<circle fill="#000000" cx="180.05" cy="187.67" r="7.59"/>
</svg>
